<svg width="148" height="158" viewBox="0 0 148 158" fill="none" xmlns="http://www.w3.org/2000/svg">
<g clip-path="url(#clip0_2282_511)">
<g clip-path="url(#clip1_2282_511)">
<path d="M95 150C136.421 150 170 116.421 170 75C170 33.5786 136.421 0 95 0C53.5786 0 20 33.5786 20 75C20 116.421 53.5786 150 95 150Z" fill="#E7F0FF"/>
<path d="M65.09 50H63.81V42.69H65.09V45.71H68.33V42.69H69.61V50H68.33V46.9H65.09V50ZM77.4019 46.34C77.4019 48.56 75.9419 50.12 73.8419 50.12C71.7519 50.12 70.3119 48.57 70.3119 46.34C70.3119 44.12 71.7619 42.56 73.8519 42.56C75.9419 42.56 77.4019 44.11 77.4019 46.34ZM76.0519 46.34C76.0519 44.78 75.1919 43.79 73.8519 43.79C72.5119 43.79 71.6519 44.78 71.6519 46.34C71.6519 47.9 72.5119 48.89 73.8519 48.89C75.1919 48.89 76.0519 47.88 76.0519 46.34ZM77.1993 43.87V42.69H82.7593V43.87H80.6193V50H79.3393V43.87H77.1993ZM87.7777 50H83.2377V42.69H87.7777V43.87H84.5177V45.75H87.4377V46.88H84.5177V48.82H87.7777V50ZM89.9455 42.69V48.82H93.0055V50H88.6655V42.69H89.9455Z" fill="#0D6EFD"/>
<path d="M75.135 90.2394L52.3437 95.1284V53.8947L75.135 49V90.2394Z" fill="#0D6EFD"/>
<path d="M98.2414 95.6798V54.3786L75.135 49V90.2394" fill="white"/>
<path d="M75 97.8684V63.1947L145 82.8579L75 97.8684Z" fill="#86B7FE"/>
<path d="M145 78.2107V82.8579L75 67.8475V63.1947L145 78.2107Z" fill="white"/>
<path d="M75 97.8684V63.1947L5.0675 82.8579L75 97.8684Z" fill="#86B7FE"/>
<path d="M5 78.2107L5.06751 82.8579L75 67.8475V63.1947L5 78.2107Z" fill="#E7F0FF"/>
<path d="M116.02 79.4147L112.425 175.295L128.369 178.715V82.0646L116.02 79.4147Z" fill="white"/>
<path d="M74.9493 167.249L21.5295 178.715V82.0646L74.9493 70.5986V167.249Z" fill="#0D6EFD"/>
<path d="M93.0204 171.132L112.425 175.295L116.02 79.3753L93.0204 74.475V171.132Z" fill="#0D6EFD"/>
<path d="M116.02 188.651V79.3754L108.858 80.6806V192.117" fill="#E7F0FF"/>
<path d="M97.3975 99.6968L105.37 101.137V83.8481L97.3975 82.149V99.6968Z" fill="#E7F0FF"/>
<path d="M97.3975 84H105.37V83.8481L97.3975 82.149V84Z" fill="#86B7FE"/>
<path d="M99.4342 97.1651L88.3113 99.5562L108.256 103.866L119.345 102.836L119.384 101.447L99.4342 97.1651Z" fill="#E7F0FF"/>
<path d="M99.4342 98.5547L88.3113 100.94L108.262 105.222L119.345 102.836L99.4342 98.5547Z" fill="#86B7FE"/>
<g opacity="0.47">
<path d="M88.3113 100.94L108.262 105.222L89.0652 109.835L88.3113 100.94Z" fill="#86B7FE"/>
</g>
<path d="M97.3975 127.827L105.37 129.268V111.979L97.3975 110.28V127.827Z" fill="#E7F0FF"/>
<path d="M97.3975 112.131H105.37V111.979L97.3975 110.28V112.131Z" fill="#86B7FE"/>
<path d="M99.4342 125.296L88.3113 127.687L108.256 131.996L119.345 130.967L119.384 129.577L99.4342 125.296Z" fill="#E7F0FF"/>
<path d="M99.4342 126.685L88.3113 129.071L108.262 133.352L119.345 130.967L99.4342 126.685Z" fill="#86B7FE"/>
<g opacity="0.47">
<path d="M88.3113 129.071L108.262 133.352L89.0652 137.966L88.3113 129.071Z" fill="#86B7FE"/>
</g>
<path d="M97.3975 155.958L105.37 157.398V140.109L97.3975 138.41V155.958Z" fill="#E7F0FF"/>
<path d="M97.3975 140.261H105.37V140.109L97.3975 138.41V140.261Z" fill="#86B7FE"/>
<path d="M93.0204 171.132V74.475L74.9493 70.5986V167.249" fill="white"/>
<path d="M67.1623 51.3051H14.0769C14.0769 51.3051 12.1839 51.3051 13.4175 49.4759C15.285 46.6895 17.9182 39.9725 24.7374 40.4489C32.5392 40.9934 34.2067 43.8521 34.2067 43.9287C34.2067 43.9287 35.3978 37.5605 42.0341 38.0241C48.6703 38.4836 50.1677 43.4735 50.1677 43.4735C50.1677 43.4735 52.8945 40.7339 57.5824 42.1165C60.1901 42.8864 62.7382 45.4218 62.2532 47.8083C64.4313 46.9575 64.3164 46.6427 66.6348 47.2042C71.629 48.4124 67.1623 51.3093 67.1623 51.3093V51.3051Z" fill="white"/>
<path d="M177.162 56.3051H124.077C124.077 56.3051 122.184 56.3051 123.418 54.4759C125.285 51.6895 127.918 44.9725 134.737 45.4489C142.539 45.9934 144.207 48.8521 144.207 48.9287C144.207 48.9287 145.398 42.5605 152.034 43.0241C158.67 43.4836 160.168 48.4735 160.168 48.4735C160.168 48.4735 162.894 45.7339 167.582 47.1165C170.19 47.8864 172.738 50.4218 172.253 52.8083C174.431 51.9575 174.316 51.6427 176.635 52.2042C181.629 53.4124 177.162 56.3093 177.162 56.3093V56.3051Z" fill="white"/>
</g>
</g>
<defs>
<clipPath id="clip0_2282_511">
<rect width="150" height="158" fill="white"/>
</clipPath>
<clipPath id="clip1_2282_511">
<rect x="20" width="150" height="150" rx="75" fill="white"/>
</clipPath>
</defs>
</svg>
