<svg width="21" height="20" viewBox="0 0 21 20" fill="none" xmlns="http://www.w3.org/2000/svg">
<path d="M10.1588 17.1023C10.1081 17.3052 9.99105 17.4852 9.82628 17.6139C9.66151 17.7426 9.45846 17.8125 9.2494 17.8125C9.17251 17.8123 9.09592 17.8029 9.02128 17.7844L6.52128 17.1594C6.41717 17.134 6.31829 17.0906 6.22909 17.0312L4.35409 15.7812C4.14689 15.6433 4.00299 15.4286 3.95406 15.1845C3.90512 14.9404 3.95516 14.6869 4.09315 14.4797C4.23115 14.2725 4.4458 14.1286 4.68989 14.0797C4.93398 14.0307 5.18751 14.0808 5.39472 14.2188L7.13456 15.3789L9.47831 15.9648C9.71935 16.0255 9.92644 16.1794 10.054 16.3927C10.1816 16.606 10.2193 16.8613 10.1588 17.1023ZM20.4213 9.58984C20.3571 9.78448 20.255 9.96449 20.1209 10.1195C19.9868 10.2745 19.8234 10.4014 19.64 10.493L17.8533 11.3867L13.6674 15.6625C13.5529 15.7771 13.4107 15.86 13.2546 15.9033C13.0985 15.9466 12.9339 15.9487 12.7767 15.9094L7.77675 14.6594C7.65944 14.6298 7.54887 14.5781 7.45097 14.507L3.23378 11.4281L1.36347 10.4906C1.17959 10.3992 1.01553 10.2725 0.88066 10.1177C0.745792 9.96287 0.642763 9.78298 0.577462 9.58831C0.512161 9.39364 0.485869 9.18801 0.50009 8.98317C0.514311 8.77834 0.568765 8.57831 0.66034 8.39453L2.60878 4.51484C2.79416 4.14431 3.11913 3.86257 3.5122 3.7316C3.90528 3.60062 4.33428 3.63113 4.70487 3.81641L6.31347 4.62188L10.2361 3.475C10.4081 3.425 10.5907 3.425 10.7627 3.475L14.6853 4.62188L16.2971 3.81563C16.6674 3.63139 17.0957 3.60153 17.4881 3.73261C17.8804 3.86368 18.2048 4.14499 18.39 4.51484L20.3314 8.39688C20.4246 8.57988 20.4805 8.77957 20.496 8.98435C20.5114 9.18914 20.486 9.39495 20.4213 9.58984ZM16.1478 10.4688L14.1947 6.5625H12.1291L9.14472 9.45703C10.376 10.0242 11.5791 9.47188 12.3338 8.71094C12.4967 8.54712 12.7145 8.44927 12.9452 8.43614C13.1759 8.42302 13.4033 8.49556 13.5838 8.63984L16.026 10.593L16.1478 10.4688ZM2.48143 8.95547L3.30409 9.36719L4.96581 6.04453L4.14237 5.63281L2.48143 8.95547ZM14.7182 11.9531L13.0228 10.5914C11.4221 11.7859 9.44081 11.9031 7.78847 10.8453C7.5913 10.7196 7.42485 10.5513 7.30138 10.3528C7.17792 10.1542 7.10059 9.93047 7.0751 9.69805C7.04961 9.46563 7.0766 9.23045 7.1541 9.00985C7.23159 8.78925 7.3576 8.58886 7.52284 8.42344L7.53222 8.41406L10.6416 5.39063L10.4994 5.35156L6.87909 6.41016L4.91659 10.3352L8.40487 12.8852L12.7119 13.9617L14.7182 11.9531ZM18.5142 8.95625L16.8564 5.63281L16.033 6.04453L17.6947 9.36719L18.5142 8.95625Z" fill="#0D6EFD"/>
</svg>
