<svg width="148" height="158" viewBox="0 0 148 158" fill="none" xmlns="http://www.w3.org/2000/svg">
<g clip-path="url(#clip0_2282_602)">
<g clip-path="url(#clip1_2282_602)">
<path d="M95 150C136.421 150 170 116.421 170 75C170 33.5786 136.421 0 95 0C53.5786 0 20 33.5786 20 75C20 116.421 53.5786 150 95 150Z" fill="#E7F0FF"/>
<path d="M67.1623 51.3051H14.0769C14.0769 51.3051 12.1839 51.3051 13.4175 49.4759C15.285 46.6895 17.9182 39.9725 24.7374 40.4489C32.5392 40.9934 34.2067 43.8521 34.2067 43.9287C34.2067 43.9287 35.3978 37.5605 42.0341 38.0241C48.6703 38.4836 50.1677 43.4735 50.1677 43.4735C50.1677 43.4735 52.8945 40.7339 57.5824 42.1165C60.1901 42.8864 62.7382 45.4218 62.2532 47.8083C64.4313 46.9575 64.3164 46.6427 66.6348 47.2042C71.629 48.4124 67.1623 51.3093 67.1623 51.3093V51.3051Z" fill="white"/>
<path d="M177.162 56.3051H124.077C124.077 56.3051 122.184 56.3051 123.418 54.4759C125.285 51.6895 127.918 44.9725 134.737 45.4489C142.539 45.9934 144.207 48.8521 144.207 48.9287C144.207 48.9287 145.398 42.5605 152.034 43.0241C158.67 43.4836 160.168 48.4735 160.168 48.4735C160.168 48.4735 162.894 45.7339 167.582 47.1165C170.19 47.8864 172.738 50.4218 172.253 52.8083C174.431 51.9575 174.316 51.6427 176.635 52.2042C181.629 53.4124 177.162 56.3093 177.162 56.3093V56.3051Z" fill="white"/>
</g>
<path d="M88.4115 127.561L90.9061 112.645L91.9142 111.859L89.4196 126.775L88.4115 127.561Z" fill="#86B7FE"/>
<path d="M82.6995 126.074L80.427 111.123L81.1446 110.064L83.4171 125.014L82.6995 126.074Z" fill="#86B7FE"/>
<path d="M95.3783 128.758L102.538 115.43L102.213 114.183L95.0708 127.51L95.3783 128.758Z" fill="#86B7FE"/>
<path d="M92.6445 136.001L82.8882 134.343L82.3585 124.519L96.4889 126.911L92.6445 136.001Z" fill="#86B7FE"/>
<path d="M124.493 92.5551C127.188 76.6549 116.476 61.5792 100.566 58.8826C84.6567 56.186 69.5748 66.8896 66.8798 82.7898C64.1847 98.69 74.8972 113.766 90.8067 116.462C106.716 119.159 121.798 108.455 124.493 92.5551Z" fill="#0D6EFD"/>
<path d="M112.607 63.8801C112.692 78.8477 110.796 102.581 99.3991 116.625C111.838 115.053 122.329 105.536 124.533 92.5509C126.464 81.1372 121.475 70.1678 112.624 63.8801H112.607Z" fill="white"/>
<path d="M87.2827 59.5917C82.2593 73.6879 76.2278 96.7202 82.3618 113.738C71.1361 108.151 64.37 95.7121 66.5741 82.7266C68.5048 71.3129 76.8429 62.616 87.2656 59.5917H87.2827Z" fill="white"/>
<g style="mix-blend-mode:multiply" opacity="0.3">
<path d="M113.851 64.7685C118.755 71.0221 121.113 79.2406 119.678 87.6812C116.978 103.571 101.891 114.285 85.9834 111.585C80.96 110.731 76.4492 108.646 72.7244 105.69C77.0473 111.209 83.3692 115.19 90.8359 116.455C106.743 119.154 121.83 108.458 124.53 92.5508C126.375 81.6668 121.933 71.1759 113.851 64.7685Z" fill="#86B7FE"/>
</g>
</g>
<defs>
<clipPath id="clip0_2282_602">
<rect width="150" height="158" fill="white"/>
</clipPath>
<clipPath id="clip1_2282_602">
<rect x="20" width="150" height="150" rx="75" fill="white"/>
</clipPath>
</defs>
</svg>
