<svg width="24" height="24" viewBox="0 0 24 24" fill="none" xmlns="http://www.w3.org/2000/svg">
<path d="M22.3016 18.9806C22.0415 19.1268 21.734 19.1637 21.4467 19.0832C21.1594 19.0027 20.9159 18.8113 20.7697 18.5513L14.3441 7.125H13.1253V7.5C13.1253 7.79837 13.0068 8.08452 12.7958 8.2955C12.5848 8.50647 12.2987 8.625 12.0003 8.625C11.7019 8.625 11.4158 8.50647 11.2048 8.2955C10.9938 8.08452 10.8753 7.79837 10.8753 7.5V7.125H9.65656L3.23093 18.5513C3.15936 18.6816 3.06267 18.7964 2.94645 18.8891C2.83024 18.9818 2.69679 19.0506 2.55384 19.0914C2.41088 19.1322 2.26126 19.1443 2.1136 19.127C1.96595 19.1096 1.82319 19.0632 1.6936 18.9903C1.564 18.9175 1.45013 18.8197 1.35856 18.7025C1.267 18.5854 1.19956 18.4513 1.16014 18.308C1.12072 18.1646 1.1101 18.0149 1.12891 17.8674C1.14771 17.7199 1.19556 17.5776 1.26968 17.4487L7.07656 7.125H2.25031C1.95194 7.125 1.66579 7.00647 1.45481 6.7955C1.24384 6.58452 1.12531 6.29837 1.12531 6C1.12531 5.70163 1.24384 5.41548 1.45481 5.2045C1.66579 4.99353 1.95194 4.875 2.25031 4.875H21.7503C22.0487 4.875 22.3348 4.99353 22.5458 5.2045C22.7568 5.41548 22.8753 5.70163 22.8753 6C22.8753 6.29837 22.7568 6.58452 22.5458 6.7955C22.3348 7.00647 22.0487 7.125 21.7503 7.125H16.9241L22.7309 17.4487C22.8771 17.7088 22.914 18.0163 22.8335 18.3036C22.753 18.5909 22.5616 18.8344 22.3016 18.9806ZM12.0003 10.125C11.7019 10.125 11.4158 10.2435 11.2048 10.4545C10.9938 10.6655 10.8753 10.9516 10.8753 11.25V12.75C10.8753 13.0484 10.9938 13.3345 11.2048 13.5455C11.4158 13.7565 11.7019 13.875 12.0003 13.875C12.2987 13.875 12.5848 13.7565 12.7958 13.5455C13.0068 13.3345 13.1253 13.0484 13.1253 12.75V11.25C13.1253 10.9516 13.0068 10.6655 12.7958 10.4545C12.5848 10.2435 12.2987 10.125 12.0003 10.125ZM12.0003 15.375C11.7019 15.375 11.4158 15.4935 11.2048 15.7045C10.9938 15.9155 10.8753 16.2016 10.8753 16.5V18C10.8753 18.2984 10.9938 18.5845 11.2048 18.7955C11.4158 19.0065 11.7019 19.125 12.0003 19.125C12.2987 19.125 12.5848 19.0065 12.7958 18.7955C13.0068 18.5845 13.1253 18.2984 13.1253 18V16.5C13.1253 16.2016 13.0068 15.9155 12.7958 15.7045C12.5848 15.4935 12.2987 15.375 12.0003 15.375Z" fill="white"/>
</svg>
