<svg width="148" height="158" viewBox="0 0 148 158" fill="none" xmlns="http://www.w3.org/2000/svg">
<g clip-path="url(#clip0_2282_416)">
<g clip-path="url(#clip1_2282_416)">
<path d="M95 150C136.421 150 170 116.421 170 75C170 33.5786 136.421 0 95 0C53.5786 0 20 33.5786 20 75C20 116.421 53.5786 150 95 150Z" fill="#E7F0FF"/>
<path d="M67.1623 51.3051H14.0769C14.0769 51.3051 12.1839 51.3051 13.4175 49.4759C15.285 46.6895 17.9182 39.9725 24.7374 40.4489C32.5392 40.9934 34.2067 43.8521 34.2067 43.9287C34.2067 43.9287 35.3978 37.5605 42.0341 38.0241C48.6703 38.4836 50.1677 43.4735 50.1677 43.4735C50.1677 43.4735 52.8945 40.7339 57.5824 42.1165C60.1901 42.8864 62.7382 45.4218 62.2532 47.8083C64.4313 46.9575 64.3164 46.6427 66.6348 47.2042C71.629 48.4124 67.1623 51.3093 67.1623 51.3093V51.3051Z" fill="white"/>
<path d="M177.162 56.3051H124.077C124.077 56.3051 122.184 56.3051 123.418 54.4759C125.285 51.6895 127.918 44.9725 134.737 45.4489C142.539 45.9934 144.207 48.8521 144.207 48.9287C144.207 48.9287 145.398 42.5605 152.034 43.0241C158.67 43.4836 160.168 48.4735 160.168 48.4735C160.168 48.4735 162.894 45.7339 167.582 47.1165C170.19 47.8864 172.738 50.4218 172.253 52.8083C174.431 51.9575 174.316 51.6427 176.635 52.2042C181.629 53.4124 177.162 56.3093 177.162 56.3093V56.3051Z" fill="white"/>
<path d="M172.05 120.94C172.05 123.25 171.94 125.52 171.71 127.77L167.89 125.92L96.27 91.18L80.91 83.73C76.64 81.65 72.91 78.68 69.97 75.05C67.72 72.28 65.92 69.13 64.67 65.72L56 42.01C58.31 42.01 60.54 42.55 62.57 43.54L62.6 43.56C64.51 44.49 66.22 45.86 67.59 47.55L74.53 56.17C79.06 61.79 84.74 66.31 91.15 69.47C94.63 71.18 98.35 72.48 102.2 73.34L172.04 88.62V120.94H172.05Z" fill="#86B7FE"/>
<path d="M78.35 98.21C78.5 99.71 79.73 100.87 81.24 100.91L118.54 102L96.26 91.17L79.79 96.05C78.86 96.33 78.25 97.23 78.34 98.2L78.35 98.21Z" fill="white"/>
<path d="M171.71 127.77L167.89 125.92L139.67 112.29L117.36 119.18H117.34L115.32 119.81C113.96 120.21 113.07 121.52 113.21 122.94C113.42 125.12 115.22 126.82 117.43 126.88L171.66 128.36C171.69 128.16 171.71 127.97 171.72 127.79" fill="white"/>
<path d="M78.34 72.73L69.97 75.04C67.72 72.27 65.92 69.13 64.67 65.71L56 42C58.3 42 60.54 42.53 62.57 43.53L62.61 43.55L78.35 72.73H78.34Z" fill="#0D6EFD"/>
<path d="M172.05 88.61V109.09L78.35 72.73L91.16 69.46C94.64 71.17 98.36 72.47 102.21 73.33L172.05 88.61Z" fill="white"/>
<path d="M117.34 119.17C117.48 119.17 156.02 120.22 156.02 120.22L139.67 112.27L117.34 119.16V119.17Z" fill="#0D6EFD"/>
<path d="M81.96 95.42C82.01 95.42 108.1 96.96 108.1 96.96L96.2 91.18L81.96 95.42Z" fill="#0D6EFD"/>
</g>
</g>
<defs>
<clipPath id="clip0_2282_416">
<rect width="150" height="158" fill="white"/>
</clipPath>
<clipPath id="clip1_2282_416">
<rect x="20" width="150" height="150" rx="75" fill="white"/>
</clipPath>
</defs>
</svg>
