<svg width="390" height="150" viewBox="0 0 390 150" fill="none" xmlns="http://www.w3.org/2000/svg">
<path d="M1000.95 0H-85.8885V197H1000.95V0Z" fill="#019ED1"/>
<path d="M1000.95 104.555V197H-86L-85.9094 17.7443V5.05421H-85.8913C-85.4928 5.04516 -72.9023 4.74621 -49.7685 4.67374C-43.2377 4.65563 -35.8555 4.65563 -27.6763 4.67374C121.851 5.14475 540.181 15.2715 1000.95 104.555Z" fill="#D5CDC3"/>
<path d="M1000.95 104.555V111.557C475.697 11.2045 6.91508 10.5705 -85.892 11.5487H-85.9102V5.05421H-85.892C-85.4935 5.04516 -72.903 4.74621 -49.7692 4.67374C-43.2384 4.65563 -35.8563 4.65563 -27.677 4.67374C121.851 5.14475 540.18 15.2715 1000.95 104.555Z" fill="white"/>
<g style="mix-blend-mode:multiply" opacity="0.2">
<path d="M1000.95 111.557V117.753C475.697 17.4002 6.91508 16.7661 -85.892 17.7444H-85.9102V11.5488H-85.892C6.90602 10.5705 475.697 11.2046 1000.95 111.557Z" fill="black"/>
</g>
</svg>
