<svg width="24" height="21" viewBox="0 0 24 21" fill="none" xmlns="http://www.w3.org/2000/svg">
<path d="M22.5 18.125H21.375V8C21.375 7.50272 21.1775 7.0258 20.8258 6.67417C20.4742 6.32254 19.9973 6.125 19.5 6.125H16.125V2C16.1249 1.68481 16.0453 1.37473 15.8936 1.09843C15.742 0.822132 15.5231 0.588524 15.2573 0.419203C14.9914 0.249882 14.6872 0.150312 14.3726 0.129695C14.0581 0.109078 13.7435 0.168081 13.4578 0.301249L3.70781 4.85187C3.38466 5.00326 3.11125 5.24346 2.91952 5.54443C2.72778 5.8454 2.62563 6.19471 2.625 6.55156V18.125H1.5C1.20163 18.125 0.915483 18.2435 0.704505 18.4545C0.493526 18.6655 0.375 18.9516 0.375 19.25C0.375 19.5484 0.493526 19.8345 0.704505 20.0455C0.915483 20.2565 1.20163 20.375 1.5 20.375H22.5C22.7984 20.375 23.0845 20.2565 23.2955 20.0455C23.5065 19.8345 23.625 19.5484 23.625 19.25C23.625 18.9516 23.5065 18.6655 23.2955 18.4545C23.0845 18.2435 22.7984 18.125 22.5 18.125ZM19.125 8.375V18.125H16.125V8.375H19.125ZM4.875 6.78969L13.875 2.59062V18.125H4.875V6.78969ZM12.375 9.5V10.625C12.375 10.9234 12.2565 11.2095 12.0455 11.4205C11.8345 11.6315 11.5484 11.75 11.25 11.75C10.9516 11.75 10.6655 11.6315 10.4545 11.4205C10.2435 11.2095 10.125 10.9234 10.125 10.625V9.5C10.125 9.20163 10.2435 8.91548 10.4545 8.7045C10.6655 8.49353 10.9516 8.375 11.25 8.375C11.5484 8.375 11.8345 8.49353 12.0455 8.7045C12.2565 8.91548 12.375 9.20163 12.375 9.5ZM8.625 9.5V10.625C8.625 10.9234 8.50647 11.2095 8.2955 11.4205C8.08452 11.6315 7.79837 11.75 7.5 11.75C7.20163 11.75 6.91548 11.6315 6.7045 11.4205C6.49353 11.2095 6.375 10.9234 6.375 10.625V9.5C6.375 9.20163 6.49353 8.91548 6.7045 8.7045C6.91548 8.49353 7.20163 8.375 7.5 8.375C7.79837 8.375 8.08452 8.49353 8.2955 8.7045C8.50647 8.91548 8.625 9.20163 8.625 9.5ZM8.625 14.375V15.5C8.625 15.7984 8.50647 16.0845 8.2955 16.2955C8.08452 16.5065 7.79837 16.625 7.5 16.625C7.20163 16.625 6.91548 16.5065 6.7045 16.2955C6.49353 16.0845 6.375 15.7984 6.375 15.5V14.375C6.375 14.0766 6.49353 13.7905 6.7045 13.5795C6.91548 13.3685 7.20163 13.25 7.5 13.25C7.79837 13.25 8.08452 13.3685 8.2955 13.5795C8.50647 13.7905 8.625 14.0766 8.625 14.375ZM12.375 14.375V15.5C12.375 15.7984 12.2565 16.0845 12.0455 16.2955C11.8345 16.5065 11.5484 16.625 11.25 16.625C10.9516 16.625 10.6655 16.5065 10.4545 16.2955C10.2435 16.0845 10.125 15.7984 10.125 15.5V14.375C10.125 14.0766 10.2435 13.7905 10.4545 13.5795C10.6655 13.3685 10.9516 13.25 11.25 13.25C11.5484 13.25 11.8345 13.3685 12.0455 13.5795C12.2565 13.7905 12.375 14.0766 12.375 14.375Z" fill="white"/>
</svg>
