<svg width="101" height="25" viewBox="0 0 101 25" fill="none" xmlns="http://www.w3.org/2000/svg">
<path d="M97.5388 24.0599H2.74334C2.74334 24.0599 -0.637067 24.0599 1.56589 20.7934C4.90071 15.8178 9.60289 3.82305 21.7799 4.67384C35.7117 5.64618 38.6895 10.751 38.6895 10.8877C38.6895 10.8877 40.8165 -0.484108 52.6668 0.343899C64.5172 1.16431 67.1911 10.0749 67.1911 10.0749C67.1911 10.0749 72.0605 5.1828 80.4317 7.65163C85.0883 9.02658 89.6385 13.554 88.7725 17.8156C92.6619 16.2963 92.4568 15.7342 96.5968 16.7369C105.515 18.8943 97.5388 24.0675 97.5388 24.0675V24.0599Z" fill="white"/>
</svg>
